<svg xmlns="http://www.w3.org/2000/svg" width="32" height="32" version="1.1" viewBox="0 0 32 32"><title>Favicon</title><g id="Page-1" fill="none" fill-rule="evenodd" stroke="none" stroke-width="1"><rect id="Background" width="32" height="32" x="0" y="0" fill="#B91C1C" rx="4"/><path id="Circle" fill="#FFF" fill-rule="nonzero" d="M16,8 C20.418278,8 24,11.581722 24,16 C24,20.418278 20.418278,24 16,24 C11.581722,24 8,20.418278 8,16 C8,11.581722 11.581722,8 16,8 Z M16,10 C12.6862915,10 10,12.6862915 10,16 C10,19.3137085 12.6862915,22 16,22 C19.3137085,22 22,19.3137085 22,16 C22,12.6862915 19.3137085,10 16,10 Z"/><path id="Play" fill="#FFF" d="M14,12 L20,16 L14,20 L14,12 Z"/></g></svg>